<svg xmlns="http://www.w3.org/2000/svg" xmlns:xlink="http://www.w3.org/1999/xlink" id="Capa_1" x="0" y="0" enable-background="new 0 0 464 464" version="1.1" viewBox="0 0 464 464" xml:space="preserve"><path fill="#F0F0F0" d="M296.297,464c-19.193-0.001-36.14-12.52-41.784-30.864L232.009,360l-22.504,73.136	c-5.644,18.344-22.591,30.863-41.784,30.864c-18.916,0.003-35.688-12.162-41.56-30.144L21.609,113.888	C11.729,61.797,45.949,11.561,98.039,1.681C103.937,0.563,109.926,0,115.929,0h8.968c27.422,0.001,53.535,11.728,71.752,32.224	L232.009,72l35.36-39.776C285.586,11.728,311.699,0.001,339.121,0h8.968c53.019-0.001,96.001,42.979,96.001,95.999	c0,6.003-0.563,11.992-1.681,17.889l-104.552,320C331.974,451.857,315.205,464.008,296.297,464z"/><g><path fill="#F5706A" d="M160.009,136L160.009,136c8.837,0,16,7.163,16,16v16c0,8.837-7.163,16-16,16l0,0 c-8.837,0-16-7.163-16-16v-16C144.009,143.163,151.172,136,160.009,136z"/><path fill="#F5706A" d="M304.009,136c8.837,0,16,7.163,16,16v16c0,8.837-7.163,16-16,16s-16-7.163-16-16v-16 C288.009,143.163,295.172,136,304.009,136"/><path fill="#F5706A" d="M232.009,288c-30.913-0.035-55.965-25.087-56-56h16c0,22.091,17.909,40,40,40s40-17.909,40-40h16 C287.973,262.913,262.922,287.965,232.009,288z"/></g><g><path fill="#D9D9D9" d="M321.352,235.57l16.002-24.003l13.313,8.875l-16.002,24.003L321.352,235.57z"/><path fill="#D9D9D9" d="M353.35,235.561l16.002-24.003l13.313,8.875l-16.002,24.003L353.35,235.561z"/><path fill="#D9D9D9" d="M113.351,220.438l13.313-8.875l16.002,24.003l-13.313,8.875L113.351,220.438z"/><path fill="#D9D9D9" d="M81.35,220.437l13.313-8.875l16.002,24.003l-13.313,8.875L81.35,220.437z"/></g></svg>